<svg xmlns="http://www.w3.org/2000/svg" xmlns:xlink="http://www.w3.org/1999/xlink" width="398" zoomAndPan="magnify" viewBox="0 0 298.5 85.499998" height="114" preserveAspectRatio="xMidYMid meet" version="1.0"><defs><g/><clipPath id="4b3cce5069"><path d="M 139.222656 13.523438 L 159.390625 13.523438 L 159.390625 24.726562 L 139.222656 24.726562 Z M 139.222656 13.523438 " clip-rule="nonzero"/></clipPath><clipPath id="13dc352eb4"><path d="M 132 23 L 166 23 L 166 51 L 132 51 Z M 132 23 " clip-rule="nonzero"/></clipPath><clipPath id="443abdb1a8"><path d="M 128.632812 42.296875 L 143.730469 17.386719 L 169.917969 33.261719 L 154.820312 58.171875 Z M 128.632812 42.296875 " clip-rule="nonzero"/></clipPath><clipPath id="8cda5e2fde"><path d="M 128.632812 42.296875 L 143.730469 17.386719 L 169.917969 33.261719 L 154.820312 58.171875 Z M 128.632812 42.296875 " clip-rule="nonzero"/></clipPath><clipPath id="fc1017a5ee"><path d="M 142 29.445312 L 148 29.445312 L 148 32 L 142 32 Z M 142 29.445312 " clip-rule="nonzero"/></clipPath><clipPath id="23e8d96da3"><path d="M 146 29.445312 L 157.304688 29.445312 L 157.304688 45.878906 L 146 45.878906 Z M 146 29.445312 " clip-rule="nonzero"/></clipPath><clipPath id="b899722b89"><path d="M 141.617188 41 L 149 41 L 149 45.878906 L 141.617188 45.878906 Z M 141.617188 41 " clip-rule="nonzero"/></clipPath><clipPath id="6f601d59fc"><path d="M 150.011719 33.890625 L 155.984375 33.890625 L 155.984375 39.867188 L 150.011719 39.867188 Z M 150.011719 33.890625 " clip-rule="nonzero"/></clipPath></defs><g clip-path="url(#4b3cce5069)"><path fill="#f8cf40" d="M 159.386719 17.402344 L 158.835938 17.910156 L 158.917969 18.257812 C 156.269531 21.144531 154.519531 22.507812 154.011719 21.78125 C 153.601562 20.398438 153.804688 19.035156 154.449219 17.679688 L 154.992188 17.429688 L 155.097656 16.238281 L 154.261719 17.101562 L 154.433594 17.679688 C 153.738281 18.824219 152.996094 19.835938 152.144531 20.574219 C 151.25 21.355469 150.976562 21.464844 150.398438 20.238281 C 149.96875 19.332031 149.820312 18.113281 149.53125 17.054688 L 150.265625 16.210938 L 149.308594 13.523438 L 148.347656 16.210938 L 149.082031 17.050781 C 148.792969 18.113281 148.648438 19.332031 148.21875 20.238281 C 147.636719 21.464844 147.367188 21.355469 146.46875 20.574219 C 145.617188 19.835938 144.875 18.824219 144.183594 17.679688 L 144.355469 17.101562 L 143.515625 16.238281 L 143.621094 17.429688 L 144.167969 17.679688 C 144.808594 19.035156 145.011719 20.398438 144.605469 21.78125 C 144.09375 22.507812 142.347656 21.144531 139.699219 18.257812 L 139.78125 17.910156 L 139.226562 17.402344 L 139.335938 18.136719 L 139.664062 18.265625 L 143.4375 24.726562 L 142.277344 21.589844 C 142.300781 21.609375 142.324219 21.625 142.347656 21.644531 C 142.9375 22.109375 143.972656 22.863281 144.757812 22.414062 C 144.890625 22.339844 145 22.234375 145.089844 22.109375 L 145.144531 22.03125 L 145.167969 21.941406 C 145.328125 21.40625 145.402344 20.875 145.402344 20.347656 C 145.617188 20.582031 145.84375 20.804688 146.082031 21.007812 C 146.480469 21.355469 146.984375 21.8125 147.558594 21.730469 C 148.183594 21.636719 148.511719 20.984375 148.75 20.480469 C 149.015625 19.925781 149.171875 19.304688 149.308594 18.695312 C 149.445312 19.304688 149.601562 19.925781 149.863281 20.480469 C 150.101562 20.984375 150.433594 21.636719 151.054688 21.730469 C 151.632812 21.8125 152.136719 21.355469 152.535156 21.007812 C 152.773438 20.804688 152.996094 20.582031 153.210938 20.347656 C 153.214844 20.875 153.289062 21.40625 153.445312 21.941406 L 153.472656 22.03125 L 153.527344 22.109375 C 153.613281 22.234375 153.726562 22.339844 153.859375 22.414062 C 154.640625 22.863281 155.675781 22.109375 156.265625 21.644531 C 156.289062 21.625 156.3125 21.609375 156.335938 21.589844 L 155.320312 24.496094 L 158.953125 18.265625 L 159.277344 18.136719 Z M 159.386719 17.402344 " fill-opacity="1" fill-rule="evenodd"/></g><path fill="#f8cf40" d="M 147.328125 19.800781 C 147.394531 20.101562 147.472656 20.410156 147.574219 20.703125 C 147.644531 20.613281 147.738281 20.464844 147.859375 20.21875 C 147.671875 19.535156 147.570312 18.761719 147.328125 18.136719 C 147.066406 18.8125 146.96875 19.660156 146.746094 20.378906 C 146.84375 20.464844 146.972656 20.574219 147.09375 20.664062 C 147.191406 20.382812 147.261719 20.089844 147.328125 19.800781 Z M 147.328125 19.800781 " fill-opacity="1" fill-rule="evenodd"/><path fill="#f8cf40" d="M 151.28125 19.800781 C 151.347656 20.089844 151.417969 20.382812 151.515625 20.667969 C 151.636719 20.578125 151.765625 20.46875 151.863281 20.382812 C 151.640625 19.664062 151.542969 18.8125 151.28125 18.136719 C 151.039062 18.757812 150.9375 19.53125 150.75 20.210938 C 150.875 20.457031 150.96875 20.609375 151.035156 20.699219 C 151.140625 20.40625 151.214844 20.101562 151.28125 19.800781 Z M 151.28125 19.800781 " fill-opacity="1" fill-rule="evenodd"/><path fill="#f8cf40" d="M 154.777344 21.542969 C 154.847656 21.082031 154.972656 20.59375 154.984375 20.160156 C 154.707031 20.449219 154.464844 20.832031 154.207031 21.183594 C 154.234375 21.3125 154.261719 21.441406 154.296875 21.566406 C 154.371094 21.46875 154.445312 21.367188 154.519531 21.265625 C 154.496094 21.390625 154.476562 21.515625 154.457031 21.644531 C 154.539062 21.632812 154.640625 21.605469 154.777344 21.542969 Z M 154.777344 21.542969 " fill-opacity="1" fill-rule="evenodd"/><path fill="#f8cf40" d="M 144.40625 21.183594 C 144.152344 20.832031 143.910156 20.449219 143.632812 20.160156 C 143.644531 20.59375 143.765625 21.082031 143.839844 21.542969 C 143.972656 21.605469 144.078125 21.632812 144.15625 21.644531 C 144.140625 21.515625 144.117188 21.390625 144.097656 21.265625 C 144.167969 21.367188 144.242188 21.46875 144.320312 21.566406 C 144.351562 21.441406 144.382812 21.3125 144.40625 21.183594 Z M 144.40625 21.183594 " fill-opacity="1" fill-rule="evenodd"/><g clip-path="url(#13dc352eb4)"><g clip-path="url(#443abdb1a8)"><g clip-path="url(#8cda5e2fde)"><path fill="#f8cf40" d="M 165.332031 40.695312 C 165.273438 40.734375 164.972656 40.902344 164.664062 41.066406 C 164.351562 41.234375 163.945312 41.464844 163.757812 41.582031 C 163.570312 41.699219 163.300781 41.832031 163.164062 41.882812 C 163.023438 41.929688 162.894531 41.996094 162.878906 42.027344 C 162.859375 42.058594 162.792969 42.230469 162.730469 42.414062 C 162.460938 43.203125 162.171875 43.800781 161.554688 44.820312 C 160.914062 45.878906 160.644531 46.242188 159.933594 47.015625 C 158.550781 48.527344 156.832031 49.71875 155 50.441406 C 154.503906 50.632812 154.398438 50.671875 154.101562 50.746094 C 153.933594 50.789062 153.863281 50.804688 153.941406 50.78125 C 154.261719 50.679688 155.398438 50.175781 155.894531 49.917969 C 158.867188 48.375 161.15625 45.84375 162.351562 42.777344 C 162.421875 42.605469 162.472656 42.421875 162.472656 42.375 C 162.46875 42.304688 162.367188 42.183594 162.035156 41.859375 C 161.796875 41.625 161.59375 41.4375 161.578125 41.441406 C 161.566406 41.441406 161.492188 41.667969 161.414062 41.933594 C 161.25 42.515625 160.980469 43.234375 160.695312 43.867188 C 160.4375 44.4375 159.609375 45.824219 159.234375 46.3125 C 158.441406 47.34375 157.515625 48.257812 156.492188 49.027344 C 156.222656 49.226562 155.339844 49.785156 155.3125 49.769531 C 155.304688 49.765625 155.34375 49.726562 155.402344 49.683594 C 155.460938 49.644531 155.6875 49.484375 155.90625 49.332031 C 157.964844 47.886719 159.625 45.851562 160.582031 43.605469 C 160.96875 42.703125 161.394531 41.308594 161.335938 41.15625 C 161.324219 41.125 161.140625 40.847656 160.933594 40.535156 C 160.53125 39.933594 160.472656 39.816406 160.554688 39.753906 C 160.632812 39.691406 160.824219 39.75 161.175781 39.9375 C 161.355469 40.03125 161.515625 40.101562 161.53125 40.09375 C 161.546875 40.085938 161.574219 39.960938 161.59375 39.816406 L 161.621094 39.554688 L 161.460938 39.402344 C 160.941406 38.925781 160.578125 38.246094 160.539062 37.6875 C 160.515625 37.347656 160.695312 37.355469 161.285156 37.730469 C 161.539062 37.890625 161.632812 37.933594 161.652344 37.90625 C 161.691406 37.839844 161.640625 37.175781 161.542969 36.441406 C 161.484375 36.015625 161.480469 36.011719 161.292969 35.800781 C 160.855469 35.320312 160.519531 34.679688 160.304688 33.914062 C 160.222656 33.613281 160.207031 33.492188 160.246094 33.433594 C 160.3125 33.320312 160.453125 33.304688 160.59375 33.386719 C 160.75 33.484375 160.773438 33.425781 160.671875 33.175781 C 159.460938 30.285156 157.378906 27.925781 154.703125 26.417969 C 153.445312 25.710938 152.339844 25.285156 150.921875 24.960938 C 148.433594 24.390625 145.785156 24.546875 143.386719 25.402344 C 142.734375 25.632812 142.507812 25.742188 142.046875 26.027344 C 140.617188 26.914062 139.304688 28.136719 138.308594 29.503906 C 137.917969 30.042969 137.101562 31.445312 136.859375 32.003906 C 136.558594 32.691406 136.300781 33.449219 136.113281 34.195312 L 136.035156 34.507812 L 136.234375 34.601562 C 136.644531 34.789062 136.996094 35.132812 137.5 35.828125 C 137.640625 36.019531 137.832031 36.265625 137.925781 36.378906 C 138.101562 36.582031 138.132812 36.683594 138.027344 36.710938 C 137.953125 36.726562 137.152344 36.382812 136.871094 36.214844 C 136.515625 36 136.378906 35.8125 136.089844 35.136719 C 136.050781 35.035156 136 34.953125 135.980469 34.949219 C 135.914062 34.933594 135.722656 36.332031 135.773438 36.433594 C 135.785156 36.457031 135.921875 36.5 136.078125 36.53125 C 136.4375 36.601562 136.898438 36.859375 137.101562 37.105469 C 137.507812 37.59375 138.484375 38.910156 138.476562 38.957031 C 138.457031 39.0625 138.335938 39.042969 137.789062 38.84375 C 136.640625 38.425781 136.210938 38.019531 135.820312 36.996094 C 135.796875 36.929688 135.761719 36.878906 135.742188 36.882812 C 135.679688 36.898438 135.714844 38.476562 135.789062 38.921875 L 135.816406 39.082031 L 136.113281 39.214844 C 136.335938 39.3125 136.484375 39.402344 136.679688 39.554688 C 137.285156 40.027344 137.472656 40.339844 138.113281 41.933594 C 138.503906 42.902344 138.519531 43.027344 138.246094 42.96875 C 138.042969 42.925781 137.363281 42.308594 137.023438 41.859375 C 136.550781 41.234375 136.246094 40.660156 136.03125 39.976562 C 135.972656 39.800781 135.921875 39.667969 135.910156 39.683594 C 135.878906 39.734375 136.050781 40.578125 136.210938 41.148438 C 136.386719 41.777344 136.757812 42.800781 136.820312 42.84375 C 136.847656 42.855469 137.003906 42.914062 137.167969 42.96875 C 137.535156 43.085938 137.835938 43.261719 138.054688 43.484375 C 138.367188 43.804688 139.019531 44.707031 139.003906 44.796875 C 138.976562 44.953125 138.828125 44.9375 138.359375 44.734375 C 138.070312 44.605469 137.753906 44.386719 137.503906 44.140625 L 137.433594 44.070312 L 137.46875 44.179688 C 137.515625 44.324219 138.042969 45.160156 138.378906 45.621094 C 139.164062 46.707031 140.226562 47.773438 141.371094 48.632812 C 142.125 49.199219 143.335938 49.882812 144.289062 50.28125 C 144.625 50.421875 144.652344 50.4375 144.671875 50.515625 C 144.722656 50.722656 144.402344 50.625 143.257812 50.078125 C 142.734375 49.828125 141.179688 48.84375 140.722656 48.472656 C 138.96875 47.050781 137.65625 45.390625 136.722656 43.421875 C 136.613281 43.195312 136.511719 43 136.496094 42.992188 C 136.480469 42.980469 136.386719 43.105469 136.289062 43.265625 C 136.191406 43.425781 136.050781 43.617188 135.976562 43.691406 C 135.820312 43.855469 135.820312 43.863281 136.117188 44.417969 C 136.328125 44.8125 136.367188 44.855469 136.417969 44.769531 C 136.472656 44.679688 136.566406 44.328125 136.554688 44.257812 C 136.542969 44.175781 136.621094 44.105469 136.679688 44.140625 C 136.765625 44.191406 137.003906 44.59375 137.0625 44.78125 C 137.136719 45.023438 137.113281 45.359375 137.011719 45.527344 C 136.96875 45.597656 136.9375 45.679688 136.9375 45.710938 C 136.9375 45.78125 137.375 46.371094 137.765625 46.828125 C 138.773438 48.011719 139.8125 48.890625 141.214844 49.75 C 141.765625 50.089844 141.949219 50.214844 141.878906 50.207031 C 141.710938 50.183594 140.050781 49.152344 139.578125 48.777344 C 138.675781 48.066406 137.820312 47.210938 137.144531 46.351562 C 136.980469 46.140625 136.828125 45.960938 136.8125 45.949219 C 136.792969 45.9375 136.753906 45.945312 136.726562 45.964844 C 136.660156 46.019531 136.496094 46.304688 136.429688 46.480469 C 136.328125 46.757812 136.160156 46.742188 136.105469 46.449219 C 136.058594 46.183594 136.101562 45.847656 136.261719 45.324219 C 136.300781 45.183594 136.292969 45.144531 136.160156 44.921875 C 136.082031 44.785156 135.949219 44.550781 135.863281 44.394531 C 135.78125 44.242188 135.691406 44.101562 135.667969 44.089844 C 135.644531 44.074219 135.554688 44.144531 135.441406 44.265625 C 135.148438 44.570312 135.117188 44.613281 134.890625 44.910156 C 134.773438 45.0625 134.660156 45.195312 134.636719 45.199219 C 134.53125 45.226562 134.515625 45.09375 134.585938 44.800781 C 134.75 44.136719 134.835938 43.902344 135.039062 43.523438 L 135.25 43.140625 L 135.03125 42.53125 C 134.910156 42.195312 134.757812 41.71875 134.6875 41.472656 C 134.609375 41.191406 134.546875 41.035156 134.515625 41.039062 C 134.4375 41.058594 133.875 41.5 133.363281 41.941406 C 133.101562 42.167969 132.859375 42.355469 132.820312 42.363281 C 132.550781 42.398438 132.644531 41.785156 132.996094 41.214844 C 133.1875 40.90625 133.53125 40.546875 134.042969 40.125 C 134.164062 40.023438 134.28125 39.914062 134.300781 39.882812 C 134.320312 39.851562 134.308594 39.570312 134.28125 39.261719 C 134.25 38.949219 134.21875 38.535156 134.214844 38.335938 C 134.210938 38.136719 134.195312 37.964844 134.175781 37.953125 C 134.105469 37.910156 132.738281 38.234375 132.425781 38.371094 C 132.25 38.449219 132.085938 38.511719 132.066406 38.511719 C 132.042969 38.511719 132.019531 38.472656 132.007812 38.425781 C 131.992188 38.363281 132.011719 38.316406 132.085938 38.226562 C 132.503906 37.730469 133.097656 37.351562 133.878906 37.078125 C 134.046875 37.019531 134.191406 36.953125 134.207031 36.925781 C 134.222656 36.902344 134.257812 36.671875 134.285156 36.414062 C 134.308594 36.160156 134.351562 35.824219 134.378906 35.667969 C 134.40625 35.511719 134.417969 35.375 134.402344 35.367188 C 134.371094 35.347656 133.972656 35.480469 133.5625 35.648438 C 133.132812 35.824219 133.023438 35.769531 133.207031 35.472656 C 133.355469 35.226562 133.78125 34.941406 134.28125 34.746094 C 134.425781 34.6875 134.554688 34.621094 134.570312 34.59375 C 134.585938 34.566406 134.679688 34.285156 134.773438 33.964844 C 135.851562 30.386719 138.316406 27.429688 141.617188 25.753906 C 141.832031 25.648438 142.308594 25.40625 142.679688 25.214844 C 144.503906 24.289062 146.164062 23.796875 148.046875 23.628906 C 151.550781 23.3125 155.109375 24.335938 157.917969 26.46875 C 159.398438 27.59375 160.714844 29.070312 161.609375 30.609375 C 161.726562 30.816406 161.839844 30.980469 161.855469 30.976562 C 161.871094 30.972656 161.898438 30.90625 161.914062 30.828125 C 162.128906 29.929688 162.226562 29.699219 162.371094 29.761719 C 162.484375 29.8125 162.632812 30.191406 162.695312 30.589844 C 162.765625 31.039062 162.816406 32.125 162.792969 32.648438 C 162.773438 33.0625 162.78125 33.128906 162.945312 33.65625 C 163.039062 33.964844 163.148438 34.347656 163.183594 34.503906 C 163.21875 34.65625 163.257812 34.78125 163.269531 34.78125 C 163.28125 34.777344 163.335938 34.652344 163.386719 34.503906 C 163.460938 34.292969 163.609375 34.023438 164.066406 33.273438 C 164.386719 32.742188 164.683594 32.28125 164.726562 32.25 C 164.894531 32.117188 165.023438 32.261719 165.105469 32.664062 C 165.242188 33.367188 165.015625 33.910156 164.109375 35.039062 C 163.863281 35.347656 163.613281 35.683594 163.550781 35.78125 C 163.449219 35.949219 163.445312 35.980469 163.480469 36.304688 C 163.523438 36.734375 163.5625 37.546875 163.554688 37.875 C 163.550781 38.007812 163.554688 38.125 163.566406 38.132812 C 163.578125 38.136719 163.652344 38.078125 163.734375 37.996094 C 163.8125 37.917969 164.097656 37.699219 164.363281 37.515625 C 164.632812 37.332031 164.980469 37.070312 165.136719 36.933594 C 165.554688 36.566406 165.5625 36.566406 165.636719 36.625 C 165.769531 36.734375 165.632812 37.292969 165.359375 37.746094 C 165.09375 38.183594 164.886719 38.351562 164.277344 38.628906 C 164.007812 38.75 163.730469 38.863281 163.660156 38.882812 C 163.59375 38.902344 163.527344 38.929688 163.515625 38.945312 C 163.507812 38.964844 163.472656 39.199219 163.441406 39.46875 C 163.410156 39.738281 163.328125 40.21875 163.257812 40.535156 C 163.191406 40.851562 163.144531 41.117188 163.160156 41.125 C 163.171875 41.132812 163.265625 41.074219 163.367188 40.996094 C 163.464844 40.914062 163.664062 40.796875 163.804688 40.730469 C 164.28125 40.511719 165.347656 40.308594 165.464844 40.410156 C 165.527344 40.46875 165.46875 40.601562 165.332031 40.695312 Z M 162.804688 41.382812 C 162.949219 40.84375 163.046875 40.371094 163.027344 40.328125 C 163.015625 40.3125 162.863281 40.238281 162.683594 40.164062 C 162.503906 40.09375 162.25 39.96875 162.121094 39.890625 C 161.847656 39.722656 161.839844 39.730469 161.804688 40.132812 L 161.785156 40.398438 L 162.0625 40.855469 C 162.214844 41.105469 162.402344 41.433594 162.476562 41.589844 C 162.546875 41.746094 162.617188 41.878906 162.628906 41.886719 C 162.664062 41.90625 162.679688 41.855469 162.804688 41.382812 Z M 163.234375 38.839844 C 163.292969 38.054688 163.292969 36.996094 163.230469 36.914062 C 163.214844 36.894531 163.132812 36.863281 163.046875 36.84375 C 162.808594 36.792969 162.476562 36.648438 162.167969 36.460938 C 162.015625 36.367188 161.875 36.300781 161.859375 36.308594 C 161.84375 36.316406 161.847656 36.488281 161.867188 36.691406 C 161.90625 37.035156 161.941406 37.671875 161.949219 38.085938 C 161.953125 38.242188 161.976562 38.296875 162.128906 38.472656 C 162.390625 38.777344 162.660156 39.160156 162.867188 39.523438 C 162.96875 39.703125 163.070312 39.859375 163.085938 39.871094 C 163.132812 39.898438 163.179688 39.566406 163.234375 38.839844 Z M 163.101562 35.621094 C 163.011719 35.101562 162.890625 34.566406 162.75 34.066406 L 162.644531 33.695312 L 162.414062 33.53125 C 161.917969 33.175781 161.703125 32.59375 161.757812 31.773438 C 161.777344 31.527344 161.695312 31.355469 161.128906 30.453125 C 160.253906 29.0625 159.191406 27.898438 157.785156 26.792969 C 157.328125 26.433594 155.707031 25.464844 155.132812 25.207031 C 152.742188 24.136719 150.164062 23.738281 147.644531 24.046875 C 147.109375 24.113281 146.453125 24.234375 146.371094 24.277344 C 146.292969 24.320312 146.316406 24.320312 146.84375 24.28125 C 149.265625 24.105469 151.496094 24.507812 153.847656 25.554688 C 154.421875 25.808594 155.925781 26.707031 156.359375 27.054688 C 157.863281 28.257812 158.863281 29.335938 159.734375 30.695312 C 160.398438 31.734375 160.839844 32.660156 161.242188 33.84375 C 161.273438 33.925781 161.421875 34.132812 161.621094 34.355469 C 161.800781 34.5625 162.203125 35.046875 162.515625 35.441406 C 162.828125 35.832031 163.101562 36.164062 163.125 36.175781 C 163.1875 36.214844 163.183594 36.113281 163.101562 35.621094 Z M 136.171875 42.109375 C 135.980469 41.566406 135.792969 40.902344 135.679688 40.363281 C 135.621094 40.085938 135.566406 39.851562 135.558594 39.839844 C 135.550781 39.828125 135.449219 39.972656 135.335938 40.160156 C 135.199219 40.378906 135.070312 40.550781 134.957031 40.65625 L 134.789062 40.8125 L 134.972656 41.503906 C 135.160156 42.230469 135.382812 42.878906 135.457031 42.921875 C 135.480469 42.9375 135.542969 42.914062 135.597656 42.867188 C 135.652344 42.824219 135.824219 42.71875 135.980469 42.636719 C 136.140625 42.554688 136.273438 42.476562 136.28125 42.464844 C 136.289062 42.457031 136.238281 42.296875 136.171875 42.109375 Z M 135.414062 38.601562 C 135.390625 38.347656 135.371094 37.921875 135.367188 37.660156 C 135.359375 37.394531 135.355469 37.167969 135.351562 37.15625 C 135.34375 37.109375 135.242188 37.191406 135.128906 37.332031 C 135.066406 37.414062 134.894531 37.558594 134.75 37.652344 L 134.488281 37.828125 L 134.492188 38.222656 C 134.5 38.722656 134.574219 39.589844 134.609375 39.632812 C 134.636719 39.660156 135.375 39.191406 135.425781 39.109375 C 135.441406 39.085938 135.433594 38.859375 135.414062 38.601562 Z M 135.421875 36.167969 C 135.4375 35.945312 135.472656 35.640625 135.496094 35.488281 C 135.519531 35.335938 135.535156 35.1875 135.53125 35.15625 C 135.527344 35.113281 135.421875 35.125 135.148438 35.191406 C 134.9375 35.238281 134.761719 35.289062 134.757812 35.300781 C 134.714844 35.367188 134.53125 36.746094 134.554688 36.839844 C 134.5625 36.882812 135.316406 36.679688 135.351562 36.625 C 135.371094 36.59375 135.402344 36.386719 135.421875 36.167969 Z M 135.6875 34.417969 C 136.125 32.304688 137.269531 30.039062 138.761719 28.328125 C 138.917969 28.152344 139.042969 27.996094 139.039062 27.988281 C 139.023438 27.933594 138.496094 28.417969 138.042969 28.90625 C 136.898438 30.136719 135.9375 31.695312 135.339844 33.296875 C 135.140625 33.835938 134.933594 34.484375 134.949219 34.542969 C 134.960938 34.589844 135.617188 34.675781 135.644531 34.628906 C 135.644531 34.628906 135.664062 34.53125 135.6875 34.417969 Z M 135.6875 34.417969 " fill-opacity="1" fill-rule="nonzero"/></g></g></g><g clip-path="url(#fc1017a5ee)"><path fill="#f8cf40" d="M 146.203125 30.050781 C 146.355469 30 146.988281 29.890625 147.34375 29.839844 C 147.394531 29.761719 147.394531 29.5 147.34375 29.445312 C 146.785156 29.445312 145.695312 29.527344 144.808594 29.527344 C 143.59375 29.527344 142.65625 29.445312 142.050781 29.445312 C 142 29.527344 142 29.761719 142.050781 29.839844 C 142.304688 29.867188 142.808594 29.890625 143.113281 29.96875 C 143.605469 30.09375 144.589844 30.476562 144.796875 31.613281 C 144.851562 31.1875 145.125 30.40625 146.203125 30.050781 Z M 146.203125 30.050781 " fill-opacity="1" fill-rule="nonzero"/></g><g clip-path="url(#23e8d96da3)"><path fill="#f8cf40" d="M 157.21875 45.253906 C 156.03125 45.226562 155.550781 45.148438 155.117188 44.9375 C 154.867188 44.808594 154.664062 44.675781 154.359375 44.441406 C 152.890625 43.261719 148.050781 37.691406 147.75 36.984375 L 147.75 36.90625 C 149.117188 35.492188 150.964844 33.371094 152.585938 31.539062 C 153.675781 30.285156 154.105469 30.023438 155.472656 29.839844 C 155.574219 29.761719 155.550781 29.5 155.472656 29.449219 C 154.765625 29.5 154.128906 29.527344 152.8125 29.527344 C 151.875 29.527344 151.140625 29.445312 150.355469 29.445312 C 150.28125 29.5 150.257812 29.785156 150.332031 29.839844 C 150.890625 29.917969 151.191406 29.996094 151.496094 30.074219 C 151.902344 30.179688 152.054688 30.335938 152.054688 30.519531 C 152.054688 30.832031 151.902344 31.199219 151.445312 31.800781 C 150.128906 33.507812 148.214844 35.695312 146.898438 36.753906 C 146.9375 37.304688 146.761719 37.785156 146.539062 38.179688 C 148.074219 40.160156 151.25 43.863281 152.257812 44.78125 C 152.863281 45.304688 153.195312 45.460938 153.445312 45.539062 C 153.980469 45.722656 156.234375 45.722656 157.171875 45.644531 C 157.269531 45.617188 157.296875 45.277344 157.21875 45.253906 Z M 157.21875 45.253906 " fill-opacity="1" fill-rule="nonzero"/></g><g clip-path="url(#b899722b89)"><path fill="#f8cf40" d="M 147.96875 45.414062 C 147.191406 45.289062 146.863281 45.257812 146.441406 45.136719 C 145.582031 44.953125 145.007812 43.5625 145.007812 42.257812 C 145.007812 42.257812 144.984375 41.566406 144.917969 41.519531 C 144.910156 41.5625 144.835938 44.84375 142.878906 45.230469 L 141.714844 45.414062 C 141.652344 45.476562 141.625 45.816406 141.714844 45.878906 C 142.074219 45.878906 143.449219 45.785156 145.007812 45.785156 C 146.414062 45.785156 147.460938 45.878906 147.941406 45.878906 C 148 45.847656 148.058594 45.476562 147.96875 45.414062 Z M 147.96875 45.414062 " fill-opacity="1" fill-rule="nonzero"/></g><path fill="#f8cf40" d="M 146.738281 36.417969 C 146.722656 36.289062 146.699219 36.160156 146.679688 36.027344 C 146.648438 35.800781 146.636719 35.570312 146.652344 35.339844 C 146.652344 35.285156 146.660156 35.234375 146.632812 35.1875 C 146.617188 35.15625 146.574219 35.140625 146.546875 35.160156 C 146.527344 35.171875 146.507812 35.1875 146.492188 35.203125 C 146.394531 35.300781 146.300781 35.410156 146.230469 35.535156 C 146.136719 35.710938 146.039062 35.886719 145.941406 36.0625 C 145.824219 36.265625 145.753906 36.488281 145.714844 36.722656 C 145.667969 36.988281 145.664062 37.261719 145.652344 37.53125 C 145.648438 37.5625 145.644531 37.597656 145.640625 37.632812 C 145.636719 37.714844 145.664062 37.796875 145.632812 37.875 C 145.640625 38.03125 145.636719 38.183594 145.613281 38.339844 C 145.628906 38.351562 145.632812 38.371094 145.628906 38.390625 C 145.628906 38.585938 145.628906 38.78125 145.632812 38.976562 C 145.632812 39.015625 145.621094 39.042969 145.609375 39.074219 C 145.515625 39.273438 145.488281 39.492188 145.445312 39.707031 C 145.398438 39.914062 145.347656 40.117188 145.277344 40.316406 C 145.277344 40.40625 145.25 40.488281 145.210938 40.601562 C 145.175781 40.484375 145.207031 40.398438 145.21875 40.3125 C 145.226562 40.175781 145.230469 40.039062 145.246094 39.902344 C 145.285156 39.546875 145.300781 39.191406 145.300781 38.835938 C 145.300781 38.570312 145.300781 38.304688 145.285156 38.042969 C 145.273438 37.875 145.265625 37.710938 145.25 37.542969 C 145.234375 37.425781 145.253906 37.3125 145.265625 37.199219 C 145.296875 36.972656 145.324219 36.742188 145.355469 36.515625 C 145.398438 36.25 145.417969 35.984375 145.4375 35.714844 C 145.4375 35.714844 145.4375 35.71875 145.4375 35.71875 C 145.515625 35.527344 145.605469 35.28125 145.683594 35.089844 C 145.757812 34.902344 145.839844 34.71875 145.976562 34.5625 C 146 34.53125 146.019531 34.507812 146.0625 34.507812 C 146.171875 34.519531 146.261719 34.464844 146.335938 34.390625 C 146.417969 34.304688 146.460938 34.199219 146.441406 34.074219 C 146.421875 33.984375 146.378906 33.9375 146.289062 33.925781 C 146.152344 33.910156 146.054688 33.980469 145.976562 34.089844 C 145.945312 34.136719 145.917969 34.195312 145.894531 34.25 C 145.863281 34.316406 145.839844 34.382812 145.867188 34.457031 C 145.886719 34.507812 145.867188 34.550781 145.84375 34.597656 C 145.753906 34.753906 145.671875 34.914062 145.585938 35.074219 C 145.582031 35.109375 145.570312 35.140625 145.546875 35.167969 C 145.523438 35.226562 145.496094 35.289062 145.472656 35.351562 C 145.46875 35.355469 145.464844 35.363281 145.464844 35.371094 C 145.472656 35.246094 145.484375 35.117188 145.492188 34.992188 C 145.496094 34.96875 145.503906 34.945312 145.507812 34.921875 C 145.507812 34.890625 145.511719 34.855469 145.515625 34.820312 C 145.515625 34.75 145.519531 34.679688 145.523438 34.613281 C 145.515625 34.59375 145.519531 34.457031 145.515625 34.300781 C 145.523438 34.285156 145.53125 34.269531 145.539062 34.253906 C 145.5625 34.210938 145.585938 34.171875 145.601562 34.125 C 145.632812 34.035156 145.648438 33.945312 145.671875 33.851562 C 145.671875 33.84375 145.675781 33.835938 145.675781 33.832031 C 145.757812 33.527344 145.792969 33.210938 145.777344 32.894531 C 145.765625 32.582031 145.707031 32.269531 145.601562 31.972656 C 145.550781 31.835938 145.496094 31.707031 145.433594 31.574219 C 145.402344 31.507812 145.371094 31.4375 145.347656 31.367188 C 145.332031 31.332031 145.3125 31.246094 145.269531 31.246094 C 145.234375 31.246094 145.199219 31.324219 145.183594 31.351562 C 145.140625 31.433594 145.121094 31.527344 145.085938 31.613281 C 145.035156 31.753906 144.988281 31.898438 144.949219 32.042969 C 144.875 32.332031 144.832031 32.628906 144.828125 32.929688 C 144.824219 33.171875 144.890625 33.40625 144.992188 33.617188 C 145.042969 33.722656 145.097656 33.820312 145.15625 33.914062 C 145.1875 33.960938 145.210938 34.007812 145.242188 34.050781 C 145.28125 34.101562 145.320312 34.152344 145.355469 34.203125 C 145.390625 34.253906 145.414062 34.3125 145.429688 34.371094 C 145.429688 34.40625 145.429688 34.445312 145.429688 34.480469 C 145.410156 34.910156 145.382812 35.339844 145.367188 35.773438 C 145.355469 36.066406 145.328125 36.359375 145.28125 36.648438 C 145.277344 36.671875 145.269531 36.691406 145.261719 36.714844 C 145.257812 36.746094 145.257812 36.78125 145.253906 36.8125 C 145.246094 36.847656 145.253906 36.886719 145.214844 36.925781 C 145.179688 36.847656 145.1875 36.78125 145.175781 36.714844 C 145.160156 36.707031 145.140625 36.699219 145.15625 36.671875 C 145.148438 36.445312 145.109375 36.21875 145.074219 35.992188 C 145.035156 35.765625 144.992188 35.539062 144.953125 35.316406 C 144.945312 35.269531 144.9375 35.226562 144.925781 35.179688 C 144.882812 35.015625 144.839844 34.851562 144.796875 34.683594 C 144.75 34.507812 144.683594 34.335938 144.605469 34.171875 C 144.527344 34.007812 144.484375 33.828125 144.433594 33.652344 C 144.429688 33.632812 144.4375 33.605469 144.4375 33.585938 C 144.433594 33.574219 144.433594 33.5625 144.4375 33.550781 C 144.425781 33.515625 144.425781 33.480469 144.4375 33.445312 C 144.4375 33.410156 144.4375 33.378906 144.4375 33.34375 C 144.4375 33.199219 144.4375 33.054688 144.441406 32.910156 C 144.441406 32.890625 144.429688 32.546875 144.421875 32.425781 C 144.40625 32.097656 144.308594 31.796875 144.128906 31.523438 C 144.066406 31.425781 143.992188 31.339844 143.902344 31.273438 C 143.761719 31.164062 143.648438 31.03125 143.53125 30.898438 C 143.4375 30.792969 143.347656 30.6875 143.25 30.582031 C 143.234375 30.5625 143.207031 30.546875 143.183594 30.53125 C 143.167969 30.523438 143.152344 30.53125 143.140625 30.546875 C 143.117188 30.582031 143.117188 30.621094 143.113281 30.664062 C 143.09375 30.886719 143.105469 31.109375 143.121094 31.332031 C 143.132812 31.464844 143.148438 31.597656 143.167969 31.726562 C 143.21875 32.070312 143.347656 32.390625 143.472656 32.707031 C 143.511719 32.800781 143.570312 32.875 143.628906 32.949219 C 143.820312 33.175781 144.023438 33.390625 144.199219 33.628906 C 144.207031 33.644531 144.214844 33.660156 144.230469 33.667969 C 144.34375 33.738281 144.378906 33.859375 144.417969 33.980469 C 144.449219 34.066406 144.480469 34.152344 144.546875 34.222656 C 144.585938 34.265625 144.601562 34.320312 144.621094 34.375 C 144.742188 34.703125 144.816406 35.046875 144.875 35.390625 C 144.910156 35.589844 144.941406 35.789062 144.972656 35.988281 C 144.980469 36.03125 144.980469 36.078125 144.980469 36.125 C 144.996094 36.140625 145 36.15625 144.996094 36.175781 C 145.03125 36.28125 145.03125 36.390625 145.042969 36.5 C 145.078125 36.886719 145.113281 37.273438 145.144531 37.660156 C 145.152344 37.722656 145.148438 37.785156 145.148438 37.847656 C 145.152344 37.925781 145.15625 38.003906 145.160156 38.082031 C 145.160156 38.097656 145.15625 38.117188 145.136719 38.113281 C 145.125 38.109375 145.117188 38.097656 145.113281 38.089844 C 145.09375 37.996094 145.078125 37.902344 145.058594 37.808594 C 144.988281 37.617188 144.910156 37.425781 144.847656 37.230469 C 144.792969 37.070312 144.722656 36.921875 144.628906 36.789062 C 144.453125 36.539062 144.335938 36.261719 144.207031 35.988281 C 144.132812 35.820312 144.0625 35.652344 143.988281 35.484375 C 143.960938 35.417969 143.929688 35.347656 143.886719 35.289062 C 143.746094 35.101562 143.691406 34.875 143.617188 34.664062 C 143.601562 34.621094 143.621094 34.585938 143.628906 34.546875 C 143.652344 34.40625 143.628906 34.273438 143.539062 34.15625 C 143.5 34.101562 143.445312 34.078125 143.378906 34.085938 C 143.273438 34.09375 143.1875 34.148438 143.125 34.234375 C 143.050781 34.332031 143.074219 34.441406 143.132812 34.539062 C 143.191406 34.636719 143.265625 34.722656 143.363281 34.78125 C 143.386719 34.785156 143.40625 34.785156 143.429688 34.785156 C 143.453125 34.769531 143.480469 34.757812 143.503906 34.742188 C 143.53125 34.726562 143.554688 34.726562 143.570312 34.761719 C 143.589844 34.820312 143.617188 34.878906 143.628906 34.941406 C 143.652344 35.0625 143.707031 35.167969 143.765625 35.269531 C 143.855469 35.417969 143.925781 35.578125 143.988281 35.734375 C 144.160156 36.148438 144.332031 36.558594 144.585938 36.925781 C 144.65625 37.035156 144.710938 37.152344 144.753906 37.28125 C 144.8125 37.480469 144.90625 37.664062 144.960938 37.863281 C 145.027344 38.109375 145.101562 38.347656 145.160156 38.59375 C 145.191406 38.734375 145.179688 38.882812 145.171875 39.027344 C 145.152344 39.566406 145.125 40.105469 145.050781 40.644531 C 145.019531 40.890625 144.988281 41.136719 144.921875 41.375 C 144.917969 41.417969 144.914062 41.464844 144.90625 41.507812 C 144.902344 41.535156 144.898438 41.5625 144.855469 41.5625 C 144.847656 41.511719 144.839844 41.464844 144.832031 41.414062 C 144.792969 41.234375 144.796875 41.046875 144.765625 40.867188 C 144.703125 40.5 144.667969 40.125 144.546875 39.769531 C 144.535156 39.738281 144.535156 39.703125 144.53125 39.667969 C 144.515625 39.65625 144.515625 39.640625 144.515625 39.621094 C 144.515625 39.539062 144.511719 39.460938 144.507812 39.378906 C 144.503906 39.152344 144.464844 38.921875 144.453125 38.695312 C 144.4375 38.398438 144.382812 38.113281 144.324219 37.828125 C 144.261719 37.515625 144.125 37.242188 143.972656 36.972656 C 143.945312 36.921875 143.902344 36.882812 143.863281 36.839844 C 143.695312 36.671875 143.558594 36.476562 143.453125 36.257812 C 143.375 36.09375 143.265625 35.945312 143.199219 35.769531 C 143.191406 35.75 143.175781 35.730469 143.152344 35.730469 C 143.117188 35.730469 143.109375 35.761719 143.097656 35.789062 C 143.089844 35.804688 143.089844 35.820312 143.089844 35.839844 C 143.082031 35.925781 143.078125 36.011719 143.070312 36.097656 C 143.066406 36.148438 143.0625 36.199219 143.058594 36.25 C 143.070312 36.273438 143.070312 36.296875 143.058594 36.320312 C 143.050781 36.5 143.042969 36.675781 143.039062 36.855469 C 143.035156 36.980469 143.054688 37.105469 143.074219 37.230469 C 143.125 37.503906 143.210938 37.765625 143.296875 38.023438 C 143.351562 38.1875 143.445312 38.335938 143.539062 38.476562 C 143.617188 38.59375 143.691406 38.714844 143.757812 38.84375 C 143.796875 38.917969 143.839844 38.996094 143.898438 39.054688 C 144.027344 39.179688 144.105469 39.339844 144.195312 39.492188 C 144.253906 39.589844 144.304688 39.691406 144.375 39.78125 C 144.464844 39.898438 144.507812 40.035156 144.535156 40.175781 C 144.574219 40.382812 144.621094 40.59375 144.652344 40.800781 C 144.683594 41.011719 144.691406 41.226562 144.730469 41.433594 C 144.773438 41.679688 144.800781 41.976562 144.761719 42.378906 C 144.75 42.503906 144.742188 42.511719 144.726562 42.636719 C 144.675781 42.960938 144.648438 43.285156 144.601562 43.609375 C 144.597656 43.636719 144.59375 43.667969 144.609375 43.691406 C 144.625 43.707031 144.648438 43.714844 144.671875 43.71875 C 144.683594 43.722656 144.699219 43.722656 144.710938 43.71875 C 144.742188 43.710938 144.734375 43.667969 144.734375 43.644531 C 144.734375 43.605469 144.757812 43.546875 144.753906 43.511719 C 144.75 43.464844 144.746094 43.417969 144.761719 43.375 C 144.761719 43.132812 144.8125 42.894531 144.84375 42.65625 C 144.859375 42.542969 144.890625 42.59375 144.890625 42.480469 C 144.886719 42.398438 145 41.714844 145.007812 41.671875 C 145.027344 41.558594 145.054688 41.445312 145.074219 41.332031 C 145.109375 41.097656 145.175781 40.871094 145.261719 40.652344 C 145.339844 40.441406 145.390625 40.222656 145.457031 40.011719 C 145.523438 39.808594 145.558594 39.597656 145.609375 39.394531 C 145.625 39.332031 145.644531 39.273438 145.667969 39.214844 C 145.699219 39.132812 145.734375 39.054688 145.746094 38.96875 C 145.765625 38.851562 145.84375 38.761719 145.917969 38.675781 C 145.96875 38.609375 146.03125 38.554688 146.09375 38.496094 C 146.199219 38.390625 146.28125 38.265625 146.363281 38.144531 C 146.546875 37.871094 146.679688 37.574219 146.730469 37.246094 C 146.769531 36.972656 146.769531 36.695312 146.738281 36.417969 Z M 146.738281 36.417969 " fill-opacity="1" fill-rule="nonzero"/><g clip-path="url(#6f601d59fc)"><path fill="#f8cf40" d="M 152.992188 33.898438 C 152.992188 33.894531 152.996094 33.894531 153 33.894531 C 153.003906 33.894531 153.007812 33.894531 153.007812 33.898438 C 153.078125 34.078125 153.617188 35.421875 154.082031 35.886719 C 154.546875 36.351562 155.808594 36.8125 155.980469 36.875 C 155.984375 36.875 155.984375 36.878906 155.984375 36.878906 C 155.984375 36.882812 155.984375 36.886719 155.980469 36.886719 C 155.808594 36.949219 154.515625 37.429688 154.050781 37.894531 C 153.585938 38.359375 153.078125 39.675781 153.007812 39.863281 C 153.007812 39.863281 153.003906 39.867188 153 39.867188 C 152.996094 39.867188 152.992188 39.863281 152.992188 39.863281 C 152.933594 39.675781 152.515625 38.382812 152.050781 37.917969 C 151.585938 37.449219 150.191406 36.949219 150.019531 36.886719 C 150.015625 36.886719 150.011719 36.882812 150.011719 36.878906 C 150.011719 36.878906 150.015625 36.875 150.015625 36.875 C 150.183594 36.804688 151.511719 36.234375 151.980469 35.769531 C 152.441406 35.304688 152.925781 34.070312 152.992188 33.898438 Z M 152.992188 33.898438 " fill-opacity="1" fill-rule="evenodd"/></g><g fill="#f8cf40" fill-opacity="1"><g transform="translate(134.884092, 65.103643)"><g><path d="M 13.675781 -7.203125 C 13.644531 -7.242188 13.585938 -7.253906 13.542969 -7.234375 C 13.503906 -7.203125 9.820312 -4.777344 7.265625 -4.179688 C 8.003906 -5.03125 8.828125 -6.007812 9.730469 -7.113281 C 10.195312 -7.285156 10.417969 -7.445312 10.429688 -7.640625 C 10.441406 -7.792969 10.328125 -7.894531 10.246094 -7.933594 C 10.214844 -7.953125 10.164062 -7.945312 10.136719 -7.902344 L 9.617188 -7.273438 L 9.578125 -7.253906 C 5.925781 -6.777344 3.996094 -6.207031 3.84375 -5.558594 C 3.785156 -5.316406 4.007812 -5.164062 4.015625 -5.164062 C 4.066406 -5.132812 4.117188 -5.144531 4.148438 -5.183594 C 4.179688 -5.226562 4.167969 -5.285156 4.117188 -5.316406 C 4.117188 -5.316406 3.996094 -5.398438 4.027344 -5.519531 C 4.089844 -5.773438 4.738281 -6.421875 9.433594 -7.050781 C 8.480469 -5.894531 7.660156 -4.921875 6.949219 -4.117188 C 6.777344 -4.089844 6.613281 -4.066406 6.453125 -4.058594 C 6.441406 -4.117188 6.410156 -4.179688 6.382812 -4.21875 C 6.269531 -4.382812 6.148438 -4.351562 6.109375 -4.332031 C 6.027344 -4.292969 5.976562 -4.179688 5.996094 -4.078125 C 6.015625 -3.976562 6.117188 -3.867188 6.308594 -3.867188 C 6.332031 -3.753906 6.339844 -3.601562 6.339844 -3.4375 C 3.886719 -0.730469 2.972656 -0.214844 2.628906 -0.214844 C 2.578125 -0.214844 2.527344 -0.164062 2.535156 -0.113281 C 2.535156 -0.0625 2.578125 -0.0195312 2.628906 -0.0195312 C 3.207031 -0.03125 4.464844 -1.09375 6.359375 -3.175781 C 6.472656 -1.5625 6.828125 1.441406 12.214844 1.441406 C 12.480469 1.441406 12.761719 1.429688 13.058594 1.410156 C 13.109375 1.410156 13.148438 1.371094 13.148438 1.320312 C 13.148438 1.269531 13.097656 1.226562 13.046875 1.226562 C 10.367188 1.371094 8.5 0.84375 7.496094 -0.324219 C 6.664062 -1.289062 6.59375 -2.527344 6.542969 -3.335938 C 6.542969 -3.347656 6.542969 -3.359375 6.542969 -3.378906 L 7.050781 -3.945312 C 9.648438 -4.445312 13.472656 -6.960938 13.644531 -7.070312 C 13.695312 -7.101562 13.707031 -7.164062 13.675781 -7.203125 Z M 10.214844 -7.71875 C 10.238281 -7.699219 10.246094 -7.679688 10.246094 -7.660156 C 10.246094 -7.640625 10.214844 -7.546875 9.984375 -7.425781 Z M 6.179688 -4.109375 L 6.179688 -4.160156 C 6.179688 -4.160156 6.199219 -4.160156 6.230469 -4.109375 L 6.257812 -4.058594 C 6.21875 -4.066406 6.1875 -4.089844 6.179688 -4.109375 Z M 6.511719 -3.632812 C 6.511719 -3.722656 6.503906 -3.804688 6.492188 -3.875 C 6.574219 -3.886719 6.664062 -3.886719 6.757812 -3.90625 Z M 6.511719 -3.632812 "/></g></g></g><g fill="#f8cf40" fill-opacity="1"><g transform="translate(145.16122, 65.103643)"><g><path d="M 0.75 -2.078125 C 0.769531 -2.078125 0.792969 -2.078125 0.8125 -2.101562 L 0.863281 -2.140625 C 0.902344 -2.179688 0.914062 -2.230469 0.871094 -2.273438 C 0.84375 -2.304688 0.78125 -2.324219 0.742188 -2.28125 L 0.691406 -2.242188 C 0.648438 -2.203125 0.648438 -2.152344 0.679688 -2.109375 C 0.699219 -2.089844 0.71875 -2.078125 0.75 -2.078125 Z M 0.101562 -0.894531 L 0.113281 -0.894531 C 0.578125 -0.894531 1.867188 -1.167969 2.515625 -1.398438 C 2.566406 -1.421875 2.585938 -1.472656 2.566406 -1.511719 C 2.554688 -1.5625 2.507812 -1.582031 2.457031 -1.574219 C 1.835938 -1.339844 0.558594 -1.074219 0.113281 -1.074219 L 0.101562 -1.074219 C -0.0390625 -1.074219 -0.101562 -1.105469 -0.113281 -1.144531 C -0.132812 -1.175781 -0.101562 -1.269531 0 -1.359375 L 0.0507812 -1.410156 C 0.164062 -1.511719 0.164062 -1.511719 0.34375 -1.652344 L 0.40625 -1.703125 C 0.445312 -1.734375 0.445312 -1.785156 0.414062 -1.824219 C 0.386719 -1.867188 0.335938 -1.875 0.292969 -1.847656 L 0.234375 -1.796875 C 0.0390625 -1.652344 0.0390625 -1.644531 -0.0703125 -1.542969 L -0.121094 -1.492188 C -0.273438 -1.359375 -0.335938 -1.195312 -0.285156 -1.074219 C -0.253906 -0.996094 -0.164062 -0.894531 0.101562 -0.894531 Z M 0.101562 -0.894531 "/></g></g></g><g fill="#f8cf40" fill-opacity="1"><g transform="translate(147.798981, 65.103643)"><g><path d="M 3.804688 -4.382812 C 3.824219 -4.453125 3.785156 -4.503906 3.742188 -4.523438 C 3.691406 -4.554688 3.550781 -4.625 2.324219 -3.691406 C 1.601562 -3.683594 1.21875 -3.621094 1.167969 -3.511719 C 1.144531 -3.460938 1.167969 -3.410156 1.21875 -3.386719 L 1.246094 -3.378906 C 1.277344 -3.378906 1.308594 -3.398438 1.328125 -3.417969 C 1.398438 -3.46875 1.683594 -3.488281 2.078125 -3.5 C 1.441406 -2.992188 0.617188 -2.292969 0.164062 -1.785156 C -0.285156 -1.277344 -0.375 -1.136719 -0.316406 -0.996094 C -0.273438 -0.902344 -0.171875 -0.882812 -0.0625 -0.882812 L 0.0507812 -0.894531 C 0.335938 -0.921875 1.195312 -1.15625 1.785156 -1.398438 C 1.824219 -1.421875 1.855469 -1.472656 1.835938 -1.523438 C 1.816406 -1.5625 1.777344 -1.59375 1.734375 -1.574219 C 1.167969 -1.339844 0.304688 -1.09375 0.03125 -1.074219 L -0.0703125 -1.066406 C -0.132812 -1.066406 -0.152344 -1.074219 -0.152344 -1.074219 C -0.164062 -1.117188 -0.132812 -1.1875 0.292969 -1.664062 C 0.386719 -1.765625 0.488281 -1.867188 0.597656 -1.976562 C 1.175781 -2.3125 2.121094 -2.953125 2.832031 -3.5 L 3.683594 -3.46875 C 3.734375 -3.46875 3.773438 -3.511719 3.785156 -3.5625 C 3.785156 -3.613281 3.742188 -3.652344 3.691406 -3.652344 L 3.0625 -3.683594 C 3.480469 -4.007812 3.773438 -4.269531 3.804688 -4.382812 Z M 2.789062 -3.683594 C 2.730469 -3.683594 2.679688 -3.691406 2.628906 -3.691406 C 2.992188 -3.957031 3.316406 -4.179688 3.511719 -4.28125 C 3.367188 -4.148438 3.105469 -3.9375 2.789062 -3.683594 Z M 1.328125 -2.648438 C 1.675781 -2.941406 2.050781 -3.238281 2.382812 -3.5 L 2.546875 -3.5 C 2.171875 -3.226562 1.746094 -2.921875 1.328125 -2.648438 Z M 1.328125 -2.648438 "/></g></g></g><g fill="#f8cf40" fill-opacity="1"><g transform="translate(149.706285, 65.103643)"><g><path d="M 0.996094 -0.882812 L 1.074219 -0.894531 C 1.207031 -0.902344 2.058594 -1.074219 3.074219 -1.398438 C 3.125 -1.410156 3.144531 -1.460938 3.136719 -1.511719 C 3.113281 -1.5625 3.0625 -1.582031 3.023438 -1.574219 C 2.027344 -1.257812 1.175781 -1.085938 1.054688 -1.074219 L 0.964844 -1.066406 C 0.996094 -1.105469 1.066406 -1.195312 1.269531 -1.378906 C 1.398438 -1.5 1.550781 -1.664062 1.472656 -1.785156 C 1.390625 -1.925781 1.117188 -1.867188 0.894531 -1.785156 C 0.640625 -1.703125 0.324219 -1.550781 0.0507812 -1.410156 L 0.566406 -1.867188 C 0.984375 -2.050781 4.066406 -3.347656 4.128906 -4.160156 C 4.140625 -4.25 4.109375 -4.3125 4.039062 -4.351562 C 3.683594 -4.515625 2.101562 -3.460938 0.464844 -2.019531 L 0.445312 -2.007812 C 0.101562 -1.703125 -0.242188 -1.378906 -0.589844 -1.046875 C -0.617188 -1.015625 -0.617188 -0.964844 -0.597656 -0.921875 C -0.566406 -0.894531 -0.515625 -0.882812 -0.476562 -0.902344 C -0.464844 -0.914062 0.394531 -1.429688 0.953125 -1.625 C 1.136719 -1.683594 1.257812 -1.695312 1.308594 -1.695312 C 1.289062 -1.664062 1.246094 -1.601562 1.144531 -1.511719 C 0.820312 -1.226562 0.742188 -1.09375 0.792969 -0.984375 C 0.820312 -0.902344 0.914062 -0.882812 0.996094 -0.882812 Z M 1.015625 -2.261719 C 2.464844 -3.480469 3.632812 -4.199219 3.917969 -4.199219 C 3.925781 -4.199219 3.945312 -4.199219 3.957031 -4.191406 L 3.957031 -4.167969 C 3.917969 -3.703125 2.332031 -2.839844 1.015625 -2.261719 Z M 1.015625 -2.261719 "/></g></g></g><g fill="#f8cf40" fill-opacity="1"><g transform="translate(152.922325, 65.103643)"><g><path d="M 0.0820312 -0.894531 L 0.0898438 -0.894531 C 0.558594 -0.894531 1.847656 -1.167969 2.496094 -1.398438 C 2.546875 -1.421875 2.566406 -1.472656 2.546875 -1.511719 C 2.535156 -1.5625 2.484375 -1.582031 2.433594 -1.574219 C 1.804688 -1.339844 0.507812 -1.066406 0.0820312 -1.074219 C -0.0390625 -1.074219 -0.121094 -1.105469 -0.140625 -1.15625 C -0.152344 -1.195312 -0.121094 -1.277344 -0.03125 -1.359375 C 0.648438 -1.875 1.035156 -1.875 1.144531 -1.804688 C 1.1875 -1.785156 1.1875 -1.765625 1.175781 -1.746094 C 1.167969 -1.695312 1.195312 -1.652344 1.246094 -1.644531 C 1.296875 -1.632812 1.347656 -1.664062 1.359375 -1.714844 C 1.378906 -1.816406 1.339844 -1.90625 1.238281 -1.957031 C 1.035156 -2.089844 0.566406 -2.039062 -0.132812 -1.5 C -0.292969 -1.378906 -0.355469 -1.226562 -0.316406 -1.09375 C -0.285156 -1.023438 -0.203125 -0.894531 0.0820312 -0.894531 Z M 0.0820312 -0.894531 "/></g></g></g><g fill="#f8cf40" fill-opacity="1"><g transform="translate(155.539801, 65.103643)"><g><path d="M 0.242188 -0.882812 C 0.578125 -0.882812 1.511719 -1.003906 2.707031 -1.398438 C 2.75 -1.410156 2.78125 -1.460938 2.757812 -1.511719 C 2.75 -1.5625 2.699219 -1.582031 2.648438 -1.574219 C 1.421875 -1.167969 0.457031 -1.054688 0.203125 -1.066406 C 0.0507812 -1.074219 -0.0898438 -1.125 -0.113281 -1.1875 C -0.132812 -1.21875 -0.101562 -1.269531 -0.0703125 -1.296875 C 0 -1.390625 0.140625 -1.480469 0.304688 -1.550781 C 0.546875 -1.449219 0.984375 -1.460938 1.21875 -1.582031 C 1.398438 -1.683594 1.410156 -1.785156 1.390625 -1.847656 C 1.347656 -1.988281 1.09375 -1.96875 1.015625 -1.957031 C 0.863281 -1.949219 0.558594 -1.867188 0.285156 -1.746094 L 0.265625 -1.734375 C 0.0625 -1.644531 -0.121094 -1.53125 -0.214844 -1.410156 C -0.324219 -1.277344 -0.304688 -1.175781 -0.285156 -1.117188 C -0.222656 -0.972656 -0.03125 -0.902344 0.242188 -0.882812 Z M 0.589844 -1.675781 C 0.769531 -1.734375 0.945312 -1.777344 1.035156 -1.785156 L 1.1875 -1.785156 L 1.125 -1.746094 C 1.003906 -1.675781 0.78125 -1.652344 0.589844 -1.675781 Z M 0.589844 -1.675781 "/></g></g></g><g fill="#f8cf40" fill-opacity="1"><g transform="translate(158.370326, 65.103643)"><g><path d="M -0.566406 -0.863281 C -0.546875 -0.863281 -0.539062 -0.863281 -0.515625 -0.871094 C 0.0507812 -1.277344 1.046875 -1.875 1.320312 -1.777344 C 1.328125 -1.746094 1.277344 -1.652344 1.136719 -1.511719 C 0.851562 -1.246094 0.71875 -1.105469 0.78125 -0.984375 C 0.832031 -0.871094 0.996094 -0.882812 1.066406 -0.894531 C 1.195312 -0.902344 2.101562 -1.085938 3.09375 -1.398438 C 3.144531 -1.410156 3.164062 -1.460938 3.15625 -1.511719 C 3.136719 -1.5625 3.085938 -1.582031 3.042969 -1.574219 C 2.058594 -1.257812 1.175781 -1.085938 1.046875 -1.074219 L 0.964844 -1.066406 C 0.984375 -1.117188 1.066406 -1.195312 1.257812 -1.378906 C 1.378906 -1.5 1.53125 -1.664062 1.5 -1.804688 C 1.492188 -1.847656 1.472656 -1.90625 1.378906 -1.949219 C 1.125 -2.039062 0.589844 -1.777344 0.132812 -1.511719 L 0.4375 -1.804688 C 0.476562 -1.847656 0.476562 -1.898438 0.4375 -1.9375 C 0.40625 -1.96875 0.34375 -1.96875 0.316406 -1.9375 L -0.628906 -1.015625 C -0.667969 -0.984375 -0.667969 -0.921875 -0.640625 -0.894531 C -0.617188 -0.871094 -0.597656 -0.863281 -0.566406 -0.863281 Z M -0.566406 -0.863281 "/></g></g></g><g fill="#f8cf40" fill-opacity="1"><g transform="translate(128.770864, 59.148422)"><g><path d="M 5.171875 -2.28125 C 5.171875 -1.53125 4.96875 -0.945312 4.5625 -0.53125 C 4.164062 -0.113281 3.601562 0.09375 2.875 0.09375 C 2.382812 0.09375 1.941406 -0.0078125 1.546875 -0.21875 C 1.148438 -0.425781 0.84375 -0.707031 0.625 -1.0625 C 0.40625 -1.425781 0.296875 -1.828125 0.296875 -2.265625 C 0.296875 -2.710938 0.398438 -3.113281 0.609375 -3.46875 C 0.828125 -3.832031 1.125 -4.113281 1.5 -4.3125 C 1.882812 -4.519531 2.3125 -4.625 2.78125 -4.625 C 3.070312 -4.625 3.367188 -4.582031 3.671875 -4.5 C 3.984375 -4.425781 4.238281 -4.320312 4.4375 -4.1875 L 4.578125 -3.28125 L 4.515625 -3.28125 C 4.421875 -3.632812 4.207031 -3.914062 3.875 -4.125 C 3.550781 -4.332031 3.1875 -4.4375 2.78125 -4.4375 C 2.207031 -4.4375 1.726562 -4.226562 1.34375 -3.8125 C 0.96875 -3.40625 0.78125 -2.894531 0.78125 -2.28125 C 0.78125 -1.664062 0.976562 -1.148438 1.375 -0.734375 C 1.769531 -0.316406 2.285156 -0.109375 2.921875 -0.109375 C 3.566406 -0.109375 4.085938 -0.3125 4.484375 -0.71875 C 4.890625 -1.132812 5.09375 -1.707031 5.09375 -2.4375 L 5.15625 -2.4375 C 5.164062 -2.382812 5.171875 -2.332031 5.171875 -2.28125 Z M 5.171875 -2.28125 "/></g></g></g><g fill="#f8cf40" fill-opacity="1"><g transform="translate(133.81302, 59.148422)"><g><path d="M 0.46875 -0.0625 C 0.582031 -0.0625 0.675781 -0.101562 0.75 -0.1875 C 0.832031 -0.269531 0.878906 -0.363281 0.890625 -0.46875 L 0.890625 -4.0625 C 0.878906 -4.175781 0.832031 -4.269531 0.75 -4.34375 C 0.675781 -4.425781 0.582031 -4.46875 0.46875 -4.46875 L 0.390625 -4.46875 L 0.390625 -4.53125 L 1.8125 -4.53125 L 1.8125 -4.46875 L 1.71875 -4.46875 C 1.5625 -4.46875 1.445312 -4.398438 1.375 -4.265625 C 1.332031 -4.203125 1.3125 -4.132812 1.3125 -4.0625 L 1.3125 -0.203125 L 2.234375 -0.203125 C 2.554688 -0.203125 2.800781 -0.269531 2.96875 -0.40625 C 3.132812 -0.550781 3.273438 -0.765625 3.390625 -1.046875 L 3.453125 -1.046875 L 3.078125 0 L 0.390625 0 L 0.390625 -0.0625 Z M 0.46875 -0.0625 "/></g></g></g><g fill="#f8cf40" fill-opacity="1"><g transform="translate(137.176594, 59.148422)"><g><path d="M 0.46875 -0.0625 C 0.582031 -0.0625 0.675781 -0.101562 0.75 -0.1875 C 0.832031 -0.269531 0.878906 -0.363281 0.890625 -0.46875 L 0.890625 -4.109375 C 0.890625 -4.210938 0.847656 -4.296875 0.765625 -4.359375 C 0.679688 -4.429688 0.582031 -4.46875 0.46875 -4.46875 L 0.390625 -4.46875 L 0.390625 -4.53125 L 2.28125 -4.53125 C 2.414062 -4.53125 2.5625 -4.539062 2.71875 -4.5625 C 2.882812 -4.59375 3 -4.625 3.0625 -4.65625 L 3.0625 -3.84375 L 3 -3.84375 L 3 -3.953125 C 3 -4.054688 2.960938 -4.144531 2.890625 -4.21875 C 2.816406 -4.289062 2.726562 -4.332031 2.625 -4.34375 L 1.3125 -4.34375 L 1.3125 -2.328125 L 2.40625 -2.328125 C 2.488281 -2.335938 2.5625 -2.367188 2.625 -2.421875 C 2.6875 -2.484375 2.71875 -2.5625 2.71875 -2.65625 L 2.71875 -2.75 L 2.78125 -2.75 L 2.78125 -1.71875 L 2.71875 -1.71875 L 2.71875 -1.828125 C 2.71875 -1.910156 2.6875 -1.984375 2.625 -2.046875 C 2.570312 -2.109375 2.5 -2.140625 2.40625 -2.140625 L 1.3125 -2.140625 L 1.3125 -0.203125 L 2.234375 -0.203125 C 2.554688 -0.203125 2.800781 -0.269531 2.96875 -0.40625 C 3.132812 -0.550781 3.273438 -0.765625 3.390625 -1.046875 L 3.453125 -1.046875 L 3.078125 0 L 0.390625 0 L 0.390625 -0.0625 Z M 0.46875 -0.0625 "/></g></g></g><g fill="#f8cf40" fill-opacity="1"><g transform="translate(140.637383, 59.148422)"><g><path d="M 0.953125 -3.96875 C 1.410156 -4.40625 2.007812 -4.625 2.75 -4.625 C 3.488281 -4.625 4.085938 -4.40625 4.546875 -3.96875 C 5.015625 -3.539062 5.25 -2.972656 5.25 -2.265625 C 5.25 -1.566406 5.015625 -1 4.546875 -0.5625 C 4.085938 -0.125 3.488281 0.09375 2.75 0.09375 C 2.007812 0.09375 1.410156 -0.125 0.953125 -0.5625 C 0.492188 -1 0.265625 -1.566406 0.265625 -2.265625 C 0.265625 -2.972656 0.492188 -3.539062 0.953125 -3.96875 Z M 1.3125 -0.703125 C 1.675781 -0.304688 2.15625 -0.109375 2.75 -0.109375 C 3.34375 -0.109375 3.820312 -0.304688 4.1875 -0.703125 C 4.550781 -1.097656 4.734375 -1.617188 4.734375 -2.265625 C 4.734375 -2.910156 4.550781 -3.429688 4.1875 -3.828125 C 3.820312 -4.234375 3.34375 -4.4375 2.75 -4.4375 C 2.15625 -4.4375 1.675781 -4.234375 1.3125 -3.828125 C 0.945312 -3.429688 0.765625 -2.910156 0.765625 -2.265625 C 0.765625 -1.617188 0.945312 -1.097656 1.3125 -0.703125 Z M 1.3125 -0.703125 "/></g></g></g><g fill="#f8cf40" fill-opacity="1"><g transform="translate(145.854526, 59.148422)"><g><path d="M 3.421875 -3.28125 C 3.421875 -3.09375 3.378906 -2.914062 3.296875 -2.75 C 3.160156 -2.445312 2.910156 -2.234375 2.546875 -2.109375 C 2.421875 -2.066406 2.3125 -2.046875 2.21875 -2.046875 C 1.957031 -2.046875 1.726562 -2.097656 1.53125 -2.203125 L 1.53125 -2.265625 C 1.84375 -2.191406 2.132812 -2.222656 2.40625 -2.359375 C 2.644531 -2.484375 2.804688 -2.6875 2.890625 -2.96875 C 2.921875 -3.050781 2.9375 -3.128906 2.9375 -3.203125 C 2.9375 -3.285156 2.9375 -3.335938 2.9375 -3.359375 C 2.925781 -3.660156 2.84375 -3.898438 2.6875 -4.078125 C 2.539062 -4.253906 2.332031 -4.34375 2.0625 -4.34375 L 1.3125 -4.34375 L 1.3125 -0.46875 C 1.3125 -0.363281 1.351562 -0.269531 1.4375 -0.1875 C 1.519531 -0.101562 1.613281 -0.0625 1.71875 -0.0625 L 1.8125 -0.0625 L 1.8125 0 L 0.390625 0 L 0.390625 -0.0625 L 0.46875 -0.0625 C 0.582031 -0.0625 0.675781 -0.101562 0.75 -0.1875 C 0.832031 -0.269531 0.878906 -0.363281 0.890625 -0.46875 L 0.890625 -4.09375 C 0.878906 -4.207031 0.832031 -4.296875 0.75 -4.359375 C 0.675781 -4.429688 0.582031 -4.46875 0.46875 -4.46875 L 0.390625 -4.46875 L 0.390625 -4.53125 L 2.078125 -4.53125 C 2.492188 -4.53125 2.820312 -4.421875 3.0625 -4.203125 C 3.300781 -3.984375 3.421875 -3.675781 3.421875 -3.28125 Z M 3.421875 -3.28125 "/></g></g></g><g fill="#f8cf40" fill-opacity="1"><g transform="translate(149.315315, 59.148422)"><g><path d="M 4.640625 -0.0625 L 4.6875 -0.0625 L 4.6875 0 L 3.234375 0 L 3.234375 -0.0625 L 3.28125 -0.0625 C 3.375 -0.0625 3.441406 -0.0859375 3.484375 -0.140625 C 3.535156 -0.203125 3.5625 -0.257812 3.5625 -0.3125 C 3.5625 -0.363281 3.550781 -0.414062 3.53125 -0.46875 L 3.125 -1.578125 L 1.375 -1.578125 L 0.9375 -0.46875 C 0.914062 -0.414062 0.90625 -0.363281 0.90625 -0.3125 C 0.90625 -0.257812 0.925781 -0.203125 0.96875 -0.140625 C 1.019531 -0.0859375 1.09375 -0.0625 1.1875 -0.0625 L 1.234375 -0.0625 L 1.234375 0 L -0.0625 0 L -0.0625 -0.0625 L 0 -0.0625 C 0.101562 -0.0625 0.207031 -0.09375 0.3125 -0.15625 C 0.414062 -0.226562 0.5 -0.332031 0.5625 -0.46875 L 2.03125 -3.96875 C 2.1875 -4.3125 2.265625 -4.53125 2.265625 -4.625 L 2.328125 -4.625 L 4.0625 -0.46875 C 4.125 -0.332031 4.207031 -0.226562 4.3125 -0.15625 C 4.414062 -0.09375 4.523438 -0.0625 4.640625 -0.0625 Z M 1.453125 -1.765625 L 3.046875 -1.765625 L 2.265625 -3.859375 Z M 1.453125 -1.765625 "/></g></g></g><g fill="#f8cf40" fill-opacity="1"><g transform="translate(153.651039, 59.148422)"><g><path d="M 3.8125 -3.96875 C 3.8125 -4.070312 3.773438 -4.160156 3.703125 -4.234375 C 3.628906 -4.304688 3.546875 -4.34375 3.453125 -4.34375 L 2.21875 -4.34375 L 2.21875 -0.46875 C 2.21875 -0.351562 2.257812 -0.253906 2.34375 -0.171875 C 2.425781 -0.0976562 2.519531 -0.0625 2.625 -0.0625 L 2.71875 -0.0625 L 2.71875 0 L 1.296875 0 L 1.296875 -0.0625 L 1.375 -0.0625 C 1.488281 -0.0625 1.585938 -0.0976562 1.671875 -0.171875 C 1.753906 -0.253906 1.796875 -0.347656 1.796875 -0.453125 L 1.796875 -4.34375 L 0.5625 -4.34375 C 0.457031 -4.34375 0.367188 -4.304688 0.296875 -4.234375 C 0.222656 -4.160156 0.1875 -4.070312 0.1875 -3.96875 L 0.1875 -3.859375 L 0.125 -3.84375 L 0.125 -4.65625 C 0.195312 -4.632812 0.3125 -4.609375 0.46875 -4.578125 C 0.625 -4.554688 0.769531 -4.546875 0.90625 -4.546875 L 3.09375 -4.546875 C 3.3125 -4.546875 3.488281 -4.5625 3.625 -4.59375 C 3.769531 -4.625 3.859375 -4.644531 3.890625 -4.65625 L 3.890625 -3.84375 L 3.8125 -3.859375 Z M 3.8125 -3.96875 "/></g></g></g><g fill="#f8cf40" fill-opacity="1"><g transform="translate(157.377549, 59.148422)"><g><path d="M 1.71875 -4.34375 L 1.3125 -4.34375 L 1.3125 -0.46875 C 1.3125 -0.363281 1.347656 -0.269531 1.421875 -0.1875 C 1.503906 -0.101562 1.601562 -0.0625 1.71875 -0.0625 L 1.796875 -0.0625 L 1.8125 0 L 0.390625 0 L 0.390625 -0.0625 L 0.46875 -0.0625 C 0.582031 -0.0625 0.675781 -0.0976562 0.75 -0.171875 C 0.832031 -0.253906 0.878906 -0.351562 0.890625 -0.46875 L 0.890625 -4.0625 C 0.878906 -4.175781 0.832031 -4.269531 0.75 -4.34375 C 0.675781 -4.425781 0.582031 -4.46875 0.46875 -4.46875 L 0.390625 -4.46875 L 0.390625 -4.53125 L 2.140625 -4.53125 C 2.535156 -4.53125 2.84375 -4.421875 3.0625 -4.203125 C 3.289062 -3.992188 3.40625 -3.710938 3.40625 -3.359375 C 3.40625 -3.015625 3.296875 -2.710938 3.078125 -2.453125 C 2.867188 -2.203125 2.609375 -2.078125 2.296875 -2.078125 C 2.367188 -2.046875 2.445312 -1.984375 2.53125 -1.890625 C 2.625 -1.804688 2.703125 -1.71875 2.765625 -1.625 C 3.140625 -1.09375 3.378906 -0.765625 3.484375 -0.640625 C 3.597656 -0.515625 3.679688 -0.429688 3.734375 -0.390625 C 3.785156 -0.347656 3.835938 -0.300781 3.890625 -0.25 C 3.941406 -0.207031 4 -0.175781 4.0625 -0.15625 C 4.1875 -0.09375 4.320312 -0.0625 4.46875 -0.0625 L 4.46875 0 L 4.109375 0 C 3.921875 0 3.742188 -0.03125 3.578125 -0.09375 C 3.421875 -0.164062 3.300781 -0.238281 3.21875 -0.3125 C 3.144531 -0.382812 3.078125 -0.453125 3.015625 -0.515625 C 2.960938 -0.578125 2.800781 -0.796875 2.53125 -1.171875 C 2.269531 -1.554688 2.117188 -1.773438 2.078125 -1.828125 C 2.035156 -1.890625 1.988281 -1.945312 1.9375 -2 C 1.800781 -2.144531 1.664062 -2.21875 1.53125 -2.21875 L 1.53125 -2.28125 C 1.5625 -2.28125 1.601562 -2.28125 1.65625 -2.28125 C 1.71875 -2.28125 1.789062 -2.28125 1.875 -2.28125 C 2.40625 -2.289062 2.738281 -2.515625 2.875 -2.953125 C 2.90625 -3.046875 2.921875 -3.128906 2.921875 -3.203125 C 2.921875 -3.273438 2.921875 -3.320312 2.921875 -3.34375 C 2.910156 -3.632812 2.832031 -3.867188 2.6875 -4.046875 C 2.550781 -4.222656 2.359375 -4.316406 2.109375 -4.328125 C 2.003906 -4.335938 1.875 -4.34375 1.71875 -4.34375 Z M 1.71875 -4.34375 "/></g></g></g><g fill="#f8cf40" fill-opacity="1"><g transform="translate(161.486439, 59.148422)"><g><path d="M 4.640625 -0.0625 L 4.6875 -0.0625 L 4.6875 0 L 3.234375 0 L 3.234375 -0.0625 L 3.28125 -0.0625 C 3.375 -0.0625 3.441406 -0.0859375 3.484375 -0.140625 C 3.535156 -0.203125 3.5625 -0.257812 3.5625 -0.3125 C 3.5625 -0.363281 3.550781 -0.414062 3.53125 -0.46875 L 3.125 -1.578125 L 1.375 -1.578125 L 0.9375 -0.46875 C 0.914062 -0.414062 0.90625 -0.363281 0.90625 -0.3125 C 0.90625 -0.257812 0.925781 -0.203125 0.96875 -0.140625 C 1.019531 -0.0859375 1.09375 -0.0625 1.1875 -0.0625 L 1.234375 -0.0625 L 1.234375 0 L -0.0625 0 L -0.0625 -0.0625 L 0 -0.0625 C 0.101562 -0.0625 0.207031 -0.09375 0.3125 -0.15625 C 0.414062 -0.226562 0.5 -0.332031 0.5625 -0.46875 L 2.03125 -3.96875 C 2.1875 -4.3125 2.265625 -4.53125 2.265625 -4.625 L 2.328125 -4.625 L 4.0625 -0.46875 C 4.125 -0.332031 4.207031 -0.226562 4.3125 -0.15625 C 4.414062 -0.09375 4.523438 -0.0625 4.640625 -0.0625 Z M 1.453125 -1.765625 L 3.046875 -1.765625 L 2.265625 -3.859375 Z M 1.453125 -1.765625 "/></g></g></g><g fill="#f8cf40" fill-opacity="1"><g transform="translate(165.822163, 59.148422)"><g><path d="M 0.234375 -3.28125 C 0.304688 -3.644531 0.34375 -3.910156 0.34375 -4.078125 C 0.34375 -4.253906 0.335938 -4.40625 0.328125 -4.53125 L 0.78125 -4.625 C 0.78125 -4.601562 0.78125 -4.554688 0.78125 -4.484375 C 0.78125 -4.421875 0.769531 -4.3125 0.75 -4.15625 C 0.726562 -4 0.675781 -3.820312 0.59375 -3.625 C 0.507812 -3.4375 0.40625 -3.304688 0.28125 -3.234375 Z M 0.234375 -3.28125 "/></g></g></g><g fill="#f8cf40" fill-opacity="1"><g transform="translate(166.645184, 59.148422)"><g><path d="M 0.390625 -0.265625 C 0.378906 -0.328125 0.375 -0.441406 0.375 -0.609375 C 0.375 -0.785156 0.40625 -0.972656 0.46875 -1.171875 L 0.53125 -1.171875 C 0.53125 -1.117188 0.53125 -1.070312 0.53125 -1.03125 C 0.53125 -0.757812 0.609375 -0.535156 0.765625 -0.359375 C 0.921875 -0.191406 1.132812 -0.109375 1.40625 -0.109375 C 1.675781 -0.109375 1.894531 -0.1875 2.0625 -0.34375 C 2.238281 -0.507812 2.328125 -0.71875 2.328125 -0.96875 C 2.328125 -1.21875 2.242188 -1.421875 2.078125 -1.578125 L 0.84375 -2.734375 C 0.601562 -2.941406 0.484375 -3.195312 0.484375 -3.5 C 0.484375 -3.8125 0.585938 -4.078125 0.796875 -4.296875 C 1.003906 -4.515625 1.28125 -4.625 1.625 -4.625 C 1.789062 -4.625 1.976562 -4.601562 2.1875 -4.5625 L 2.4375 -4.5625 L 2.4375 -3.765625 L 2.375 -3.765625 C 2.375 -3.972656 2.300781 -4.132812 2.15625 -4.25 C 2.019531 -4.375 1.84375 -4.4375 1.625 -4.4375 C 1.40625 -4.4375 1.21875 -4.363281 1.0625 -4.21875 C 0.914062 -4.070312 0.84375 -3.882812 0.84375 -3.65625 C 0.84375 -3.4375 0.929688 -3.25 1.109375 -3.09375 L 2.390625 -1.90625 C 2.597656 -1.707031 2.703125 -1.4375 2.703125 -1.09375 C 2.703125 -0.75 2.59375 -0.460938 2.375 -0.234375 C 2.15625 -0.015625 1.863281 0.09375 1.5 0.09375 C 1.3125 0.09375 1.109375 0.0625 0.890625 0 C 0.679688 -0.0507812 0.515625 -0.140625 0.390625 -0.265625 Z M 0.390625 -0.265625 "/></g></g></g></svg>